# xmcd CD database file
#
# Track frame offsets:
#	150
#	13821
#	29218
#	44653
#	57891
#	74279
#	89279
#	98748
#	117631
#	131921
#	143486
#	154683
#	160676
#	176679
#	190607
#
# Disc length: 2689 seconds
#
# Revision: 0
# Processed by: cddbd v1.5.1PL0 Copyright (c) Steve Scherf et al.
# Submitted via: CDex 1.51
#
DISCID=d20a7f0f
DTITLE=Ray Stubbs and His Amazing One Man Blues Band - Ray Stubbs and His Amazing One Man Blues Band
DYEAR=1977
DGENRE=Blues
TTITLE0=Georgia Crawl (Memphis Jug Band)
TTITLE1=Dying Crapshooters Blues (Blind Willie Mctell)
TTITLE2=The Cuckoo
TTITLE3=Big Road Blues (Tommy Johnson)
TTITLE4=Good Morning Little Schoolgirl (Doctor Russ)
TTITLE5=Corrine, Corrine (Jessie Fuller)
TTITLE6=K.C.Blues (Gid Tanner)
TTITLE7=Brownsville Blues (Sleepy John Estes)
TTITLE8=Railroad Worksong (Jessie Fuller)
TTITLE9=Death's Black Train
TTITLE10=Poor Boy Blues (Johnie Lewis)
TTITLE11=Frisco Leaving Birmingham (George "Bullet" Williams)
TTITLE12=Baby Won't You Tell Me (John Hammond)
TTITLE13=Ox Driving Song (Leadbelly)
TTITLE14=Catfish (Bobo Thomas)
EXTD=YEAR: 1977
EXTT0=
EXTT1=
EXTT2=
EXTT3=
EXTT4=
EXTT5=
EXTT6=
EXTT7=
EXTT8=
EXTT9=
EXTT10=
EXTT11=
EXTT12=
EXTT13=
EXTT14=
PLAYORDER=
